:FULLY-SPECIFIED
:FORCE-ALL-JOINTS-BE-3DOF
:DEGREES
1
root 3.77885 16.5525 -36.4801 5.88787 1.81269 -0.768912
lfemur -24.0328 1.49061 -21.5052
ltibia 42.5501 0 0
lfoot -16.5396 4.45511 0.0652688
ltoes -11.5335 0 0
rfemur -23.2994 1.12599 22.9143
rtibia 66.1779 0 0
rfoot 6.43435 -2.63593 -0.14819
rtoes 4.26314 0 0
lowerback 7.45955 -0.827119 -1.99214
upperback 0.0619106 -1.38551 0.212764
thorax -3.98303 -0.549244 1.66336
lowerneck -10.9677 -2.24204 -7.49703
upperneck 0.550561 -2.45216 10.9056
head 2.38394 -0.980652 4.43695
lclavicle -1.6027e-15 4.37328e-15 -7.98771e-31
lhumerus -23.3207 -11.9947 85.591
lradius 70.6353 0 0
lwrist 17.4033 0 0
lhand -25.2459 -7.31926 -1.65304
lfingers 7.12502 0 0
lthumb 1.2722 22.3393 -1.60269
rclavicle -1.6027e-15 4.37328e-15 -7.98771e-31
rhumerus -46.8532 13.0684 -86.5452
rradius 68.6387 0 0
rwrist -14.6811 0 0
rhand -41.0379 7.2667 -2.32588
rfingers 7.12502 0 0
rthumb -13.9585 -22.0878 -2.27856
2
root 3.78321 16.5916 -36.149 5.81051 2.13574 -0.700226
lfemur -22.6211 0.937759 -21.3492
ltibia 40.4842 0 0
lfoot -15.5167 4.5553 0.0304569
ltoes -17.7633 0 0
rfemur -23.7211 1.0694 22.9847
rtibia 64.996 0 0
rfoot 5.85395 -2.43212 -0.124373
rtoes 3.93437 0 0
lowerback 7.03725 -1.11556 -2.05199
upperback 0.23035 -1.73119 0.256288
thorax -3.53713 -0.742855 1.79545
lowerneck -10.9031 -2.14085 -7.05683
upperneck 0.638664 -2.35833 10.4369
head 2.37571 -0.95368 4.21699
lclavicle 1.01691e-14 -1.78906e-15 1.98825e-32
lhumerus -22.853 -11.8434 85.4066
lradius 71.2215 0 0
lwrist 17.7426 0 0
lhand -25.2092 -6.73645 -1.787
lfingers 7.12502 0 0
lthumb 1.30755 22.9213 -1.7322
rclavicle 1.01691e-14 -1.78906e-15 1.98825e-32
rhumerus -47.1409 12.9734 -86.5148
rradius 69.1765 0 0
rwrist -15.1508 0 0
rhand -40.6416 6.7042 -2.44433
rfingers 7.12502 0 0
rthumb -13.5762 -22.6653 -2.39472
3
root 3.78331 16.6311 -35.8195 5.84433 2.04683 -0.812558
lfemur -21.4278 0.683231 -21.0329
ltibia 38.5589 0 0
lfoot -14.1982 3.74094 -0.00694037
ltoes -19.1718 0 0
rfemur -24.1738 1.60819 23.3329
rtibia 63.531 0 0
rfoot 5.09305 -2.37873 -0.105808
rtoes 2.48223 0 0
lowerback 6.24921 -1.31262 -2.03406
upperback 0.529158 -1.95083 0.354927
thorax -2.76635 -0.874904 1.91255
lowerneck -10.8711 -1.93458 -6.91263
upperneck 0.429983 -2.0815 10.218
head 2.27427 -0.826173 4.10921
lclavicle 9.44225e-15 7.15627e-15 -1.47315e-30
lhumerus -22.121 -11.3831 85.1167
lradius 71.5119 0 0
lwrist 17.9079 0 0
lhand -25.1861 -7.66336 -1.765
lfingers 7.12502 0 0
lthumb 1.32975 21.9735 -1.71152
rclavicle 9.44225e-15 7.15627e-15 -1.47315e-30
rhumerus -47.0258 13.0816 -86.3999
rradius 69.5554 0 0
rwrist -15.708 0 0
rhand -40.119 6.53475 -2.63531
rfingers 7.12502 0 0
rthumb -13.0716 -22.8471 -2.58268
4
root 3.78573 16.6735 -35.4813 5.88121 1.71536 -0.976274
lfemur -20.1532 0.549304 -20.73
ltibia 36.5007 0 0
lfoot -12.496 3.43027 -0.0459794
ltoes -20.1133 0 0
rfemur -24.4933 2.23977 23.7097
rtibia 61.943 0 0
rfoot 4.11326 -2.45918 -0.0883237
rtoes 0.54569 0 0
lowerback 6.0911 -1.26143 -1.99009
upperback 0.382201 -1.87365 0.542812
thorax -2.81738 -0.832552 2.12456
lowerneck -10.4802 -1.91779 -7.37621
upperneck 0.13491 -1.9921 10.1681
head 2.14082 -0.809705 4.14396
lclavicle 1.43933e-14 1.11319e-14 3.72941e-31
lhumerus -22.2198 -11.5975 85.5666
lradius 71.983 0 0
lwrist 18.295 0 0
lhand -24.9928 -8.48333 -1.72514
lfingers 7.12502 0 0
lthumb 1.51575 21.1086 -1.67522
rclavicle 1.43933e-14 1.11319e-14 3.72941e-31
rhumerus -47.656 12.9168 -86.057
rradius 69.8885 0 0
rwrist -16.0552 0 0
rhand -40.1411 6.47335 -2.6479
rfingers 7.12502 0 0
rthumb -13.093 -22.9084 -2.59463
